<svg width="1280" height="720" viewBox="0 0 1280 720" xmlns="http://www.w3.org/2000/svg">
<path fill="#003399" d="M 0 0 L 0 720 L 1280 720 L 1280 0 L 0 0 z M 640 110 A 250 250 0 0 1 890 360 A 250 250 0 0 1 640 610 A 250 250 0 0 1 390 360 A 250 250 0 0 1 640 110 z M 640 172.5 A 187.5 187.5 0 0 0 452.5 360 A 187.5 187.5 0 0 0 640 547.5 A 187.5 187.5 0 0 0 827.5 360 A 187.5 187.5 0 0 0 640 172.5 z M 640 248.08203 A 106.25 113.83928 0 0 1 746.25 359.41797 A 106.25 113.83928 0 0 1 745.39453 372.50781 C 757.37451 382.82529 765 398.32801 765 415.66797 C 765 446.73291 740.54439 471.91797 710.37695 471.91797 L 710.37695 359.41797 C 714.07195 359.41797 717.67797 359.79564 721.16797 360.51562 A 81.25 87.053573 0 0 0 721.25 359.41797 A 81.25 87.053573 0 0 0 640 272.36719 A 81.25 87.053573 0 0 0 558.75 359.41797 A 81.25 87.053573 0 0 0 558.83203 360.51562 C 562.32203 359.79564 565.92805 359.41797 569.62305 359.41797 L 569.62305 471.91797 C 539.45561 471.91797 515 446.73291 515 415.66797 C 515 398.32801 522.62599 382.82529 534.60547 372.50781 A 106.25 113.83928 0 0 1 533.75 359.41797 A 106.25 113.83928 0 0 1 640 248.08203 z" />
</svg>