<svg width="1280" height="720" viewBox="0 0 1280 720" xmlns="http://www.w3.org/2000/svg">
<path fill="#003399" d="M 0 0 L 0 720 L 1280 720 L 1280 0 L 0 0 z M 640 110 A 250 250 0 0 1 890 360 A 250 250 0 0 1 640 610 A 250 250 0 0 1 390 360 A 250 250 0 0 1 640 110 z M 640 172.5 A 187.5 187.5 0 0 0 452.5 360 A 187.5 187.5 0 0 0 640 547.5 A 187.5 187.5 0 0 0 827.5 360 A 187.5 187.5 0 0 0 640 172.5 z M 695.24219 260.5625 L 739.4375 304.75781 L 592.12305 452.07031 L 540.5625 459.4375 L 547.92969 407.87695 L 695.24219 260.5625 z" />
</svg>