<svg width="200" height="200" viewBox="0 0 200 200" xmlns="http://www.w3.org/2000/svg">
<path fill="#003399" d="M100 0 A100 100 0 0 0 0 100 A100 100 0 0 0 100 200 A100 100 0 0 0 200 100 A100 100 0 0 0 100 0 Z M100 25 A75 75 0 0 1 175 100 A75 75 0 0 1 100 175 A75 75 0 0 1 25 100 A75 75 0 0 1 100 25 Z"/>
<path fill="#003399" d="m 137.5,62.5 v 65.625 c 0,5.19375 -4.18125,9.375 -9.37501,9.375 H 71.875 c -5.193751,0 -9.375,-4.18125 -9.375,-9.375 V 100 h 9.3375 c -0.0096,-9.375411 0.075,-37.5 0.075,-37.5 z" />
</svg>