<svg xmlns:svg="http://www.w3.org/2000/svg" xmlns="http://www.w3.org/2000/svg" viewBox="0 0 900 100" width="900" height="100" version="1.1">
  <path stroke-width="3" stroke="#003399" fill="none" d="M 716,65 A 13,13 0 0 1 703,78 13,13 0 0 1 690,65 13,13 0 0 1 703,52 13,13 0 0 1 716,65 Z" />
  <path stroke-width="3" stroke="#003399" fill="none" d="m 315,36 a 5,5 0 0 1 -5,5 5,5 0 0 1 -5,-5 5,5 0 0 1 5,-5 5,5 0 0 1 5,5 z" />
  <path stroke-width="3" stroke="#003399" fill="none" d="m 627,46 a 4,4 0 0 1 -4,4 4,4 0 0 1 -4,-4 4,4 0 0 1 4,-4 4,4 0 0 1 4,4 z" />
  <path stroke-width="3" stroke="#003399" fill="none" d="m 29,24 a 5,5 0 0 1 -5,5 5,5 0 0 1 -5,-5 5,5 0 0 1 5,-5 5,5 0 0 1 5,5 z" />
  <path stroke-width="3" stroke="#003399" fill="none" d="m 869,62 a 5,5 0 0 1 -5,5 5,5 0 0 1 -5,-5 5,5 0 0 1 5,-5 5,5 0 0 1 5,5 z" />
  <path stroke-width="3" stroke="#003399" fill="none" d="m 140,55 a 9,9 0 0 1 -9,9 9,9 0 0 1 -9,-9 9,9 0 0 1 9,-9 9,9 0 0 1 9,9 z" />
  <path stroke-width="3" stroke="#003399" fill="none" d="m 422,25 a 6,6 0 0 1 -6,6 6,6 0 0 1 -6,-6 6,6 0 0 1 6,-6 6,6 0 0 1 6,6 z" />
  <path stroke-width="3" stroke="#003399" fill="none" d="m 347,63 a 6,6 0 0 1 -6,6 6,6 0 0 1 -6,-6 6,6 0 0 1 6,-6 6,6 0 0 1 6,6 z" />
  <path stroke-width="3" stroke="#003399" fill="none" d="m 403,68 a 9,9 0 0 1 -9,9 9,9 0 0 1 -9,-9 9,9 0 0 1 9,-9 9,9 0 0 1 9,9 z" />
  <path stroke-width="3" stroke="#003399" fill="none" d="M 770,82 A 11,11 0 0 1 759,93 11,11 0 0 1 748,82 11,11 0 0 1 759,71 11,11 0 0 1 770,82 Z" />
  <path stroke-width="3" stroke="#003399" fill="none" d="m 53,49 a 4,4 0 0 1 -4,4 4,4 0 0 1 -4,-4 4,4 0 0 1 4,-4 4,4 0 0 1 4,4 z" />
  <path stroke-width="3" stroke="#003399" fill="none" d="m 377,21 a 9,9 0 0 1 -9,9 9,9 0 0 1 -9,-9 9,9 0 0 1 9,-9 9,9 0 0 1 9,9 z" />
  <path stroke-width="3" stroke="#003399" fill="none" d="M 172,61 A 11,11 0 0 1 161,72 11,11 0 0 1 150,61 11,11 0 0 1 161,50 11,11 0 0 1 172,61 Z" />
  <path stroke-width="3" stroke="#003399" fill="none" d="m 24,70 a 4,4 0 0 1 -4,4 4,4 0 0 1 -4,-4 4,4 0 0 1 4,-4 4,4 0 0 1 4,4 z" />
  <path stroke-width="3" stroke="#003399" fill="none" d="m 131,21 a 7,7 0 0 1 -7,7 7,7 0 0 1 -7,-7 7,7 0 0 1 7,-7 7,7 0 0 1 7,7 z" />
  <path stroke-width="3" stroke="#003399" fill="none" d="m 841,39 a 4,4 0 0 1 -4,4 4,4 0 0 1 -4,-4 4,4 0 0 1 4,-4 4,4 0 0 1 4,4 z" />
  <path stroke-width="3" stroke="#003399" fill="none" d="M 712,21 A 11,11 0 0 1 701,32 11,11 0 0 1 690,21 11,11 0 0 1 701,10 11,11 0 0 1 712,21 Z" />
  <path stroke-width="3" stroke="#003399" fill="none" d="m 615,85 a 5,5 0 0 1 -5,5 5,5 0 0 1 -5,-5 5,5 0 0 1 5,-5 5,5 0 0 1 5,5 z" />
  <path stroke-width="3" stroke="#003399" fill="none" d="M 448,84 A 10,10 0 0 1 438,94 10,10 0 0 1 428,84 10,10 0 0 1 438,74 10,10 0 0 1 448,84 Z" />
  <path stroke-width="3" stroke="#003399" fill="none" d="m 259,59 a 8,8 0 0 1 -8,8 8,8 0 0 1 -8,-8 8,8 0 0 1 8,-8 8,8 0 0 1 8,8 z" />
  <path stroke-width="3" stroke="#003399" fill="none" d="m 564,29 a 5,5 0 0 1 -5,5 5,5 0 0 1 -5,-5 5,5 0 0 1 5,-5 5,5 0 0 1 5,5 z" />
  <path stroke-width="3" stroke="#003399" fill="none" d="m 600,60 a 7,7 0 0 1 -7,7 7,7 0 0 1 -7,-7 7,7 0 0 1 7,-7 7,7 0 0 1 7,7 z" />
  <path stroke-width="3" stroke="#003399" fill="none" d="M 888,20 A 10,10 0 0 1 878,30 10,10 0 0 1 868,20 10,10 0 0 1 878,10 10,10 0 0 1 888,20 Z" />
  <path stroke-width="3" stroke="#003399" fill="none" d="M 107,23 A 11,11 0 0 1 96,34 11,11 0 0 1 85,23 11,11 0 0 1 96,12 11,11 0 0 1 107,23 Z" />
  <path stroke-width="3" stroke="#003399" fill="none" d="m 469,42 a 9,9 0 0 1 -9,9 9,9 0 0 1 -9,-9 9,9 0 0 1 9,-9 9,9 0 0 1 9,9 z" />
  <path stroke-width="3" stroke="#003399" fill="none" d="m 215,21 a 8,8 0 0 1 -8,8 8,8 0 0 1 -8,-8 8,8 0 0 1 8,-8 8,8 0 0 1 8,8 z" />
  <path stroke-width="3" stroke="#003399" fill="none" d="m 208,55 a 7,7 0 0 1 -7,7 7,7 0 0 1 -7,-7 7,7 0 0 1 7,-7 7,7 0 0 1 7,7 z" />
  <path stroke-width="3" stroke="#003399" fill="none" d="m 673,74 a 5,5 0 0 1 -5,5 5,5 0 0 1 -5,-5 5,5 0 0 1 5,-5 5,5 0 0 1 5,5 z" />
  <path stroke-width="3" stroke="#003399" fill="none" d="m 273,22 a 4,4 0 0 1 -4,4 4,4 0 0 1 -4,-4 4,4 0 0 1 4,-4 4,4 0 0 1 4,4 z" />
  <path stroke-width="3" stroke="#003399" fill="none" d="m 514,58 a 6,6 0 0 1 -6,6 6,6 0 0 1 -6,-6 6,6 0 0 1 6,-6 6,6 0 0 1 6,6 z" />
  <path stroke-width="3" stroke="#003399" fill="none" d="m 513,19 a 6,6 0 0 1 -6,6 6,6 0 0 1 -6,-6 6,6 0 0 1 6,-6 6,6 0 0 1 6,6 z" />
  <path stroke-width="3" stroke="#003399" fill="none" d="M 804,63 A 10,10 0 0 1 794,73 10,10 0 0 1 784,63 10,10 0 0 1 794,53 10,10 0 0 1 804,63 Z" />
  <path stroke-width="3" stroke="#003399" fill="none" d="M 666,41 A 10,10 0 0 1 656,51 10,10 0 0 1 646,41 10,10 0 0 1 656,31 10,10 0 0 1 666,41 Z" />
  <path stroke-width="3" stroke="#003399" fill="none" d="m 782,31 a 8,8 0 0 1 -8,8 8,8 0 0 1 -8,-8 8,8 0 0 1 8,-8 8,8 0 0 1 8,8 z" />
  <path stroke-width="3" stroke="#003399" fill="none" d="m 287,84 a 6,6 0 0 1 -6,6 6,6 0 0 1 -6,-6 6,6 0 0 1 6,-6 6,6 0 0 1 6,6 z" />
  <path stroke-width="3" stroke="#003399" fill="none" d="M 743,37 A 11,11 0 0 1 732,48 11,11 0 0 1 721,37 11,11 0 0 1 732,26 11,11 0 0 1 743,37 Z" />
  <path stroke-width="3" stroke="#003399" fill="none" d="M 241,37 A 10,10 0 0 1 231,47 10,10 0 0 1 221,37 10,10 0 0 1 231,27 10,10 0 0 1 241,37 Z" />
  <path stroke-width="3" stroke="#003399" fill="none" d="m 86,58 a 4,4 0 0 1 -4,4 4,4 0 0 1 -4,-4 4,4 0 0 1 4,-4 4,4 0 0 1 4,4 z" />
  <path stroke-width="3" stroke="#003399" fill="none" d="m 479,70 a 7,7 0 0 1 -7,7 7,7 0 0 1 -7,-7 7,7 0 0 1 7,-7 7,7 0 0 1 7,7 z" />
  <path stroke-width="3" stroke="#003399" fill="none" d="m 232,76 a 5,5 0 0 1 -5,5 5,5 0 0 1 -5,-5 5,5 0 0 1 5,-5 5,5 0 0 1 5,5 z" />
  <path stroke-width="3" stroke="#003399" fill="none" d="m 183,31 a 7,7 0 0 1 -7,7 7,7 0 0 1 -7,-7 7,7 0 0 1 7,-7 7,7 0 0 1 7,7 z" />
  <path stroke-width="3" stroke="#003399" fill="none" d="M 648,18 A 10,10 0 0 1 638,28 10,10 0 0 1 628,18 10,10 0 0 1 638,8 10,10 0 0 1 648,18 Z" />
  <path stroke-width="3" stroke="#003399" fill="none" d="m 373,82 a 7,7 0 0 1 -7,7 7,7 0 0 1 -7,-7 7,7 0 0 1 7,-7 7,7 0 0 1 7,7 z" />
  <path stroke-width="3" stroke="#003399" fill="none" d="m 574,75 a 7,7 0 0 1 -7,7 7,7 0 0 1 -7,-7 7,7 0 0 1 7,-7 7,7 0 0 1 7,7 z" />
  <path stroke-width="3" stroke="#003399" fill="none" d="M 139,86 A 11,11 0 0 1 128,97 11,11 0 0 1 117,86 11,11 0 0 1 128,75 11,11 0 0 1 139,86 Z" />
  <path stroke-width="3" stroke="#003399" fill="none" d="m 325,82 a 9,9 0 0 1 -9,9 9,9 0 0 1 -9,-9 9,9 0 0 1 9,-9 9,9 0 0 1 9,9 z" />
  <path stroke-width="3" stroke="#003399" fill="none" d="m 532,81 a 4,4 0 0 1 -4,4 4,4 0 0 1 -4,-4 4,4 0 0 1 4,-4 4,4 0 0 1 4,4 z" />
  <path stroke-width="3" stroke="#003399" fill="none" d="m 189,82 a 9,9 0 0 1 -9,9 9,9 0 0 1 -9,-9 9,9 0 0 1 9,-9 9,9 0 0 1 9,9 z" />
  <path stroke-width="3" stroke="#003399" fill="none" d="m 815,33 a 9,9 0 0 1 -9,9 9,9 0 0 1 -9,-9 9,9 0 0 1 9,-9 9,9 0 0 1 9,9 z" />
  <path stroke-width="3" stroke="#003399" fill="none" d="m 60,82 a 6,6 0 0 1 -6,6 6,6 0 0 1 -6,-6 6,6 0 0 1 6,-6 6,6 0 0 1 6,6 z" />
  <path stroke-width="3" stroke="#003399" fill="none" d="M 619,20 A 10,10 0 0 1 609,30 10,10 0 0 1 599,20 10,10 0 0 1 609,10 10,10 0 0 1 619,20 Z" />
  <path stroke-width="3" stroke="#003399" fill="none" d="m 828,68 a 5,5 0 0 1 -5,5 5,5 0 0 1 -5,-5 5,5 0 0 1 5,-5 5,5 0 0 1 5,5 z" />
  <path stroke-width="3" stroke="#003399" fill="none" d="m 348,26 a 9,9 0 0 1 -9,9 9,9 0 0 1 -9,-9 9,9 0 0 1 9,-9 9,9 0 0 1 9,9 z" />
  <path stroke-width="3" stroke="#003399" fill="none" d="M 72,16 A 11,11 0 0 1 61,27 11,11 0 0 1 50,16 11,11 0 0 1 61,5 11,11 0 0 1 72,16 Z" />
  <path stroke-width="3" stroke="#003399" fill="none" d="M 742,69 A 10,10 0 0 1 732,79 10,10 0 0 1 722,69 10,10 0 0 1 732,59 10,10 0 0 1 742,69 Z" />
  <path stroke-width="3" stroke="#003399" fill="none" d="m 431,57 a 8,8 0 0 1 -8,8 8,8 0 0 1 -8,-8 8,8 0 0 1 8,-8 8,8 0 0 1 8,8 z" />
  <path stroke-width="3" stroke="#003399" fill="none" d="M 894,85 A 11,11 0 0 1 883,96 11,11 0 0 1 872,85 11,11 0 0 1 883,74 11,11 0 0 1 894,85 Z" />
  <path stroke-width="3" stroke="#003399" fill="none" d="m 288,51 a 5,5 0 0 1 -5,5 5,5 0 0 1 -5,-5 5,5 0 0 1 5,-5 5,5 0 0 1 5,5 z" />
  <path stroke-width="3" stroke="#003399" fill="none" d="m 504,86 a 7,7 0 0 1 -7,7 7,7 0 0 1 -7,-7 7,7 0 0 1 7,-7 7,7 0 0 1 7,7 z" />
  <path stroke-width="3" stroke="#003399" fill="none" d="m 159,14 a 6,6 0 0 1 -6,6 6,6 0 0 1 -6,-6 6,6 0 0 1 6,-6 6,6 0 0 1 6,6 z" />
  <path stroke-width="3" stroke="#003399" fill="none" d="M 110,82 A 10,10 0 0 1 100,92 10,10 0 0 1 90,82 10,10 0 0 1 100,72 10,10 0 0 1 110,82 Z" />
  <path stroke-width="3" stroke="#003399" fill="none" d="m 376,50 a 9,9 0 0 1 -9,9 9,9 0 0 1 -9,-9 9,9 0 0 1 9,-9 9,9 0 0 1 9,9 z" />
  <path stroke-width="3" stroke="#003399" fill="none" d="m 537,40 a 5,5 0 0 1 -5,5 5,5 0 0 1 -5,-5 5,5 0 0 1 5,-5 5,5 0 0 1 5,5 z" />
  <path stroke-width="3" stroke="#003399" fill="none" d="m 452,17 a 8,8 0 0 1 -8,8 8,8 0 0 1 -8,-8 8,8 0 0 1 8,-8 8,8 0 0 1 8,8 z" />
  <path stroke-width="3" stroke="#003399" fill="none" d="m 645,80 a 6,6 0 0 1 -6,6 6,6 0 0 1 -6,-6 6,6 0 0 1 6,-6 6,6 0 0 1 6,6 z" />
  <path stroke-width="3" stroke="#003399" fill="none" d="m 486,19 a 8,8 0 0 1 -8,8 8,8 0 0 1 -8,-8 8,8 0 0 1 8,-8 8,8 0 0 1 8,8 z" />
</svg>
