<svg width="386" height="675" viewBox="0 0 386 675" xmlns="http://www.w3.org/2000/svg">
<path fill="#840084" opacity="0.75" d="M 324.77241,1.3610903 C 309.44512,4.6882001 319.73054,-4.8898431 157.28144,157.43279 12.882248,301.80918 8.7479132,306.04369 5.3194406,313.20201 -1.8400168,328.22442 -1.7391794,343.146 5.4202781,357.76512 17.520769,382.56721 46.965299,392.44772 72.275493,380.34914 79.636625,376.82039 82.96426,373.49328 228.17015,228.31031 373.37605,83.127334 376.70369,79.800223 380.23299,72.440253 382.45141,67.802464 384.2665,62.055638 384.97236,57.518671 388.80417,31.809185 371.3593,6.7046303 345.84743,1.3610903 c -8.26866,-1.81478706 -13.00802,-1.81478706 -21.07502,0 z" />
<path fill="#840084" opacity="0.75" d="m 39.295513,290.71882 c -14.318915,3.22629 -27.326943,13.30844 -33.7805385,26.41523 -7.2602948,14.61912 -7.3611323,29.74235 -0.2016748,44.66393 3.5293099,7.35997 6.9577823,10.88872 152.0628403,155.87006 145.20589,145.18296 148.53353,148.51008 155.89467,152.03883 14.72225,7.05751 29.84787,7.05751 44.26762,0 24.90685,-12.19941 34.88976,-42.04257 22.58758,-67.24794 C 376.69754,595.50224 369.94144,588.54555 229.37406,447.89956 125.51152,343.95258 80.53802,299.59111 76.605362,297.27222 c -11.394629,-6.95669 -25.209358,-9.3764 -37.309849,-6.5534 z" />
</svg>