<svg width="1200" height="200" viewBox="0 0 1200 200" xmlns="http://www.w3.org/2000/svg">
<path fill="#ffffff" d="M100 0 A100 100 0 0 0 0 100 A100 100 0 0 0 100 200 A100 100 0 0 0 200 100 A100 100 0 0 0 100 0 Z M100 25 A75 75 0 0 1 175 100 A75 75 0 0 1 100 175 A75 75 0 0 1 25 100 A75 75 0 0 1 100 25 Z"/>
<path fill="#ffffff" d="M 701.9375 40.492188 L 701.9375 149.06055 L 708.52539 149.06055 L 708.52539 40.492188 L 701.9375 40.492188 z M 1164.998 40.492188 L 1164.998 87.472656 L 1164.7109 87.472656 C 1160.0321 78.449207 1152.2036 73.9375 1141.2227 73.9375 C 1131.2921 73.9375 1123.1996 77.612404 1116.9453 84.964844 C 1110.7387 92.269541 1107.6348 101.8433 1107.6348 113.68359 C 1107.6348 125.28518 1110.4748 134.3802 1116.1562 140.96875 C 1121.8854 147.5573 1129.2617 150.85156 1138.2852 150.85156 C 1144.1576 150.85156 1149.4345 149.49089 1154.1133 146.76953 C 1158.7921 144.04817 1162.3238 140.37132 1164.7109 135.74023 L 1164.998 135.74023 L 1164.998 149.06055 L 1171.5859 149.06055 L 1171.5859 40.492188 L 1164.998 40.492188 z M 225.19727 46.365234 L 225.19727 149.06055 L 232.28711 149.06055 L 232.28711 103.29883 L 245.03516 103.29883 C 249.28429 103.29883 252.81792 104.37304 255.63477 106.52148 C 258.45161 108.62218 261.26714 112.77582 264.08398 118.98242 L 277.76367 149.06055 L 285.7832 149.06055 L 270.5293 116.33203 C 266.6621 108.07247 262.70074 103.13108 258.64258 101.50781 L 258.64258 101.22266 C 266.28148 99.79036 272.22547 96.590284 276.47461 91.625 C 280.72375 86.659716 282.84766 80.478308 282.84766 73.078125 C 282.84766 65.057281 280.24502 58.611985 275.04102 53.742188 C 269.88476 48.824646 262.77237 46.365234 253.70117 46.365234 L 225.19727 46.365234 z M 623.5918 46.365234 L 623.5918 149.06055 L 630.68164 149.06055 L 630.68164 107.88281 L 645.43359 107.88281 C 656.65323 107.88281 665.36566 104.82596 671.57227 98.714844 C 677.82661 92.555982 680.95508 84.702921 680.95508 75.154297 C 680.95508 65.748902 678.16212 58.611985 672.57617 53.742188 C 666.99023 48.824646 658.92037 46.365234 648.36914 46.365234 L 623.5918 46.365234 z M 1086.0781 46.365234 C 1084.6936 46.365234 1083.4291 46.866535 1082.2832 47.869141 C 1081.1851 48.824003 1080.6367 50.088539 1080.6367 51.664062 C 1080.6367 53.287328 1081.1851 54.625432 1082.2832 55.675781 C 1083.3813 56.72613 1084.6459 57.25 1086.0781 57.25 C 1087.6059 57.25 1088.9195 56.701607 1090.0176 55.603516 C 1091.1157 54.505424 1091.6641 53.191842 1091.6641 51.664062 C 1091.6641 50.040796 1091.0912 48.751737 1089.9453 47.796875 C 1088.8472 46.842013 1087.5582 46.365234 1086.0781 46.365234 z M 232.28711 52.882812 L 251.48047 52.882812 C 259.21485 52.882812 265.15885 54.744787 269.3125 58.46875 C 273.46615 62.14497 275.54297 67.252162 275.54297 73.792969 C 275.54297 80.954437 273.22679 86.589405 268.5957 90.695312 C 264.01237 94.801221 257.80643 96.853516 249.97656 96.853516 L 232.28711 96.853516 L 232.28711 52.882812 z M 630.68164 52.882812 L 647.08008 52.882812 C 664.79278 52.882812 673.65039 60.592645 673.65039 76.013672 C 673.65039 84.082258 671.23807 90.337234 666.41602 94.777344 C 661.59396 99.169714 654.55319 101.36523 645.29102 101.36523 L 630.68164 101.36523 L 630.68164 52.882812 z M 966.69727 54.457031 C 965.64691 54.838976 964.54818 55.197048 963.40234 55.53125 C 962.2565 55.913195 961.15972 56.295789 960.10938 56.677734 L 960.10938 75.726562 L 946.93164 75.726562 L 946.93164 81.742188 L 960.10938 81.742188 L 960.10938 131.01367 C 960.10937 143.9998 965.52755 150.49219 976.36523 150.49219 C 979.37305 150.49219 982.5957 149.68186 986.0332 148.05859 L 986.0332 141.89844 C 982.88216 143.66494 979.94597 144.54883 977.22461 144.54883 C 973.40516 144.54883 970.68381 143.42752 969.06055 141.18359 C 967.48503 138.89192 966.69727 135.21507 966.69727 130.1543 L 966.69727 81.742188 L 986.0332 81.742188 L 986.0332 75.726562 L 966.69727 75.726562 L 966.69727 54.457031 z M 335.41211 73.9375 C 324.76539 73.9375 316.17167 77.374991 309.63086 84.25 C 303.1378 91.125009 299.89258 100.64972 299.89258 112.82422 C 299.89258 124.09159 302.99456 133.25824 309.20117 140.32422 C 315.45552 147.34246 323.93054 150.85156 334.625 150.85156 C 345.3672 150.85156 353.8177 147.31794 359.97656 140.25195 C 366.18317 133.18597 369.28711 123.94771 369.28711 112.53711 C 369.28711 100.4581 366.25478 91.005 360.19141 84.177734 C 354.12803 77.350469 345.86785 73.9375 335.41211 73.9375 z M 415.76562 73.9375 C 405.69183 73.9375 397.57488 77.636926 391.41602 85.037109 C 385.25716 92.437293 382.17773 101.98653 382.17773 113.68359 C 382.17773 125.38066 385.01779 134.49826 390.69922 141.03906 C 396.42839 147.57987 403.80467 150.85156 412.82812 150.85156 C 424.66842 150.85156 433.47699 145.86113 439.25391 135.88281 L 439.54102 135.88281 L 439.54102 145.4082 C 439.54102 166.79712 429.41886 177.49219 409.17578 177.49219 C 402.25303 177.49219 394.92579 175.34375 387.19141 171.04688 L 387.19141 177.92188 C 394.68707 181.64584 401.96722 183.50781 409.0332 183.50781 C 421.73287 183.50781 431.08983 180.30773 437.10547 173.91016 C 443.1211 167.51258 446.12891 157.41495 446.12891 143.61719 L 446.12891 75.726562 L 439.54102 75.726562 L 439.54102 87.328125 L 439.25391 87.328125 C 434.38411 78.400162 426.55557 73.9375 415.76562 73.9375 z M 575.67969 73.9375 C 565.94009 73.9375 558.01542 77.612404 551.9043 84.964844 C 545.84092 92.269541 542.80859 101.27038 542.80859 111.96484 C 542.80859 124.33031 545.72221 133.90212 551.54688 140.68164 C 557.37154 147.46117 565.00975 150.85156 574.46289 150.85156 C 583.82054 150.85156 592.29557 148.15279 599.88672 142.75781 L 599.88672 135.74023 C 592.05685 141.80361 584.03603 144.83594 575.82422 144.83594 C 567.70789 144.83594 561.30969 141.99393 556.63086 136.3125 C 551.99978 130.63107 549.68359 122.75348 549.68359 112.67969 L 603.96875 112.67969 L 603.96875 109.74414 C 603.96875 98.667738 601.53386 89.930781 596.66406 83.533203 C 591.79426 77.135626 584.79862 73.9375 575.67969 73.9375 z M 758.72852 73.9375 C 754.62261 73.9375 750.22961 74.700736 745.55078 76.228516 C 740.9197 77.756295 737.24284 79.593747 734.52148 81.742188 L 734.52148 89.691406 C 742.16038 83.198342 750.0154 79.953125 758.08398 79.953125 C 769.92428 79.953125 775.84375 87.83071 775.84375 103.58594 L 753.28516 106.95117 C 736.33635 109.62478 727.86133 117.35914 727.86133 130.1543 C 727.86133 136.12219 729.89106 141.06358 733.94922 144.97852 C 738.00739 148.89345 743.52169 150.85156 750.49219 150.85156 C 755.9349 150.85156 760.8763 149.37023 765.31641 146.41016 C 769.80426 143.40234 773.21723 139.39193 775.55664 134.37891 L 775.84375 134.37891 L 775.84375 149.06055 L 782.43164 149.06055 L 782.43164 101.36523 C 782.43164 92.437268 780.35482 85.633904 776.20117 80.955078 C 772.09526 76.276253 766.27193 73.9375 758.72852 73.9375 z M 836.42969 73.9375 C 825.06682 73.9375 816.71246 78.973077 811.36523 89.046875 L 811.07812 89.046875 L 811.07812 75.726562 L 804.49023 75.726562 L 804.49023 149.06055 L 811.07812 149.06055 L 811.07812 106.95117 C 811.07813 99.31227 813.34526 92.914069 817.88086 87.757812 C 822.41646 82.553812 828.21722 79.953125 835.2832 79.953125 C 847.98287 79.953125 854.33398 88.761694 854.33398 106.37891 L 854.33398 149.06055 L 860.92188 149.06055 L 860.92188 104.44531 C 860.92187 94.657973 858.82054 87.138462 854.61914 81.886719 C 850.41774 76.587233 844.35504 73.9375 836.42969 73.9375 z M 910.55078 73.9375 C 900.81118 73.9375 892.8865 77.612404 886.77539 84.964844 C 880.71201 92.269541 877.67969 101.27038 877.67969 111.96484 C 877.67969 124.33031 880.59135 133.90212 886.41602 140.68164 C 892.24068 147.46117 899.88085 150.85156 909.33398 150.85156 C 918.69164 150.85156 927.16665 148.15279 934.75781 142.75781 L 934.75781 135.74023 C 926.92794 141.80361 918.90713 144.83594 910.69531 144.83594 C 902.57898 144.83594 896.18078 141.99393 891.50195 136.3125 C 886.87087 130.63107 884.55469 122.75348 884.55469 112.67969 L 938.83984 112.67969 L 938.83984 109.74414 C 938.83984 98.667738 936.40496 89.930781 931.53516 83.533203 C 926.66536 77.135626 919.66972 73.9375 910.55078 73.9375 z M 1030.793 73.9375 C 1020.1462 73.9375 1011.5525 77.374991 1005.0117 84.25 C 998.51863 91.125009 995.27148 100.64972 995.27148 112.82422 C 995.27148 124.09159 998.37541 133.25824 1004.582 140.32422 C 1010.8364 147.34246 1019.3095 150.85156 1030.0039 150.85156 C 1040.7461 150.85156 1049.1966 147.31794 1055.3555 140.25195 C 1061.5621 133.18597 1064.666 123.94771 1064.666 112.53711 C 1064.666 100.4581 1061.6337 91.005 1055.5703 84.177734 C 1049.5069 77.350469 1041.2487 73.9375 1030.793 73.9375 z M 468.11523 75.726562 L 468.11523 118.12305 C 468.11523 139.94165 476.78058 150.85156 494.11133 150.85156 C 504.75804 150.85156 512.63563 145.81404 517.74414 135.74023 L 518.03125 135.74023 L 518.03125 149.06055 L 524.61914 149.06055 L 524.61914 75.726562 L 518.03125 75.726562 L 518.03125 117.26367 C 518.03125 125.61872 515.90539 132.30338 511.65625 137.31641 C 507.45485 142.32943 501.94055 144.83594 495.11328 144.83594 C 488.09504 144.83594 482.93881 142.59137 479.64453 138.10352 C 476.398 133.61567 474.77539 126.40713 474.77539 116.47656 L 474.77539 75.726562 L 468.11523 75.726562 z M 1082.8555 75.726562 L 1082.8555 149.06055 L 1089.4453 149.06055 L 1089.4453 75.726562 L 1082.8555 75.726562 z M 335.12695 79.953125 C 343.8162 79.953125 350.52343 82.746086 355.25 88.332031 C 360.02431 93.917976 362.41211 101.93879 362.41211 112.39453 C 362.41211 122.56381 360.02431 130.51301 355.25 136.24219 C 350.47568 141.97136 343.67231 144.83594 334.83984 144.83594 C 326.15059 144.83594 319.30014 141.92232 314.28711 136.09766 C 309.27408 130.273 306.76758 122.56317 306.76758 112.9668 C 306.76758 102.60654 309.32117 94.514114 314.42969 88.689453 C 319.58595 82.864793 326.48545 79.953125 335.12695 79.953125 z M 415.9082 79.953125 C 422.92644 79.953125 428.6085 82.3164 432.95312 87.042969 C 437.34549 91.769537 439.54102 97.37803 439.54102 103.87109 L 439.54102 118.41016 C 439.54102 125.81034 437.20227 132.06336 432.52344 137.17188 C 427.84462 142.28039 421.56511 144.83594 413.6875 144.83594 C 406.28731 144.83594 400.32075 142.06554 395.78516 136.52734 C 391.2973 130.9414 389.05273 123.13543 389.05273 113.10938 C 389.05273 103.13107 391.51215 95.110251 396.42969 89.046875 C 401.34723 82.983499 407.83962 79.953125 415.9082 79.953125 z M 575.39453 79.953125 C 582.03082 79.953125 587.23416 82.291878 591.00586 86.970703 C 594.77757 91.649529 596.80729 98.213528 597.09375 106.66406 L 549.9707 106.66406 C 551.02106 98.070299 553.78949 91.481777 558.27734 86.898438 C 562.81294 82.267355 568.51952 79.953125 575.39453 79.953125 z M 910.26562 79.953125 C 916.90192 79.953125 922.10524 82.291878 925.87695 86.970703 C 929.64866 91.649529 931.67838 98.213528 931.96484 106.66406 L 884.8418 106.66406 C 885.89214 98.070299 888.66058 91.481777 893.14844 86.898438 C 897.68403 82.267355 903.39062 79.953125 910.26562 79.953125 z M 1030.5059 79.953125 C 1039.1951 79.953125 1045.9023 82.746086 1050.6289 88.332031 C 1055.4032 93.917976 1057.791 101.93879 1057.791 112.39453 C 1057.791 122.56381 1055.4032 130.51301 1050.6289 136.24219 C 1045.8546 141.97136 1039.0512 144.83594 1030.2188 144.83594 C 1021.5295 144.83594 1014.6791 141.92232 1009.666 136.09766 C 1004.653 130.273 1002.1465 122.56317 1002.1465 112.9668 C 1002.1465 102.60654 1004.7001 94.514114 1009.8086 88.689453 C 1014.9648 82.864793 1021.8643 79.953125 1030.5059 79.953125 z M 1141.0781 79.953125 C 1148.3829 79.953125 1154.1836 82.338969 1158.4805 87.113281 C 1162.8251 91.83985 1164.998 97.618046 1164.998 104.44531 L 1164.998 118.12305 C 1164.998 125.57097 1162.7064 131.89756 1158.123 137.10156 C 1153.5397 142.25782 1147.0699 144.83594 1138.7148 144.83594 C 1131.6012 144.83594 1125.7778 142.09007 1121.2422 136.59961 C 1116.7543 131.06141 1114.5098 123.23092 1114.5098 113.10938 C 1114.5098 102.79686 1117.0163 94.704435 1122.0293 88.832031 C 1127.0424 82.911885 1133.3915 79.953125 1141.0781 79.953125 z M 775.84375 109.60156 L 775.84375 116.76172 C 775.84375 125.02128 773.50499 131.77756 768.82617 137.0293 C 764.14734 142.2333 758.27496 144.83594 751.20898 144.83594 C 746.05273 144.83594 742.0178 143.42622 739.10547 140.60938 C 736.24088 137.79253 734.80859 134.21181 734.80859 129.86719 C 734.80859 124.32898 736.35959 120.3431 739.46289 117.9082 C 742.56619 115.42557 747.9618 113.6352 755.64844 112.53711 L 775.84375 109.60156 z"/>
</svg>