<svg width="200" height="200" viewBox="0 0 200 200" xmlns="http://www.w3.org/2000/svg">
<path fill="#003399" d="M100 0 A100 100 0 0 0 0 100 A100 100 0 0 0 100 200 A100 100 0 0 0 200 100 A100 100 0 0 0 100 0 Z M100 25 A75 75 0 0 1 175 100 A75 75 0 0 1 100 175 A75 75 0 0 1 25 100 A75 75 0 0 1 100 25 Z"/>
<path fill="#003399" d="m 100,50.000001 a 42.5,45.535714 0 0 0 -42.5,44.535 42.5,45.535714 0 0 0 0.3418,5.235999 C 53.05,103.898 50,110.099 50,117.035 c 0,12.426 9.782,22.5 21.849,22.5 V 94.535001 c -1.478,0 -2.92,0.151 -4.316,0.438999 a 32.5,34.821429 0 0 1 -0.033,-0.438999 32.5,34.821429 0 0 1 32.5,-34.821 32.5,34.821429 0 0 1 32.5,34.821 32.5,34.821429 0 0 1 -0.033,0.438999 c -1.396,-0.287999 -2.838,-0.438999 -4.316,-0.438999 V 139.535 c 12.067,0 21.849,-10.074 21.849,-22.5 0,-6.936 -3.05,-13.137 -7.842,-17.264 a 42.5,45.535714 0 0 0 0.342,-5.235999 42.5,45.535714 0 0 0 -42.5,-44.535 z" />
</svg>