<?xml version="1.0" encoding="UTF-8" standalone="no"?>
<svg xmlns:svg="http://www.w3.org/2000/svg" xmlns="http://www.w3.org/2000/svg" viewBox="0 0 900 102" width="900" height="102" version="1.1">
  <path d="M 0,12 H 43 V 30 H 86 V 0 h 43 v 6 h 42 v 22 h 43 v 23 h 43 V 4 h 43 v 36 h 43 v 4 h 43 V 10 h 43 v 37 h 42 V 29 h 43 V 17 h 43 v 26 h 43 V 15 h 43 v -2 h 43 v 20 h 43 v 0 h 42 V 14 h 43 v 22 h 43 v 6 h 43 v -30 72 0 h -43 v 0 h -43 v 0 h -43 v 0 h -42 v 0 h -43 v 0 h -43 v 0 h -43 v 0 h -43 v 0 h -43 v 0 h -43 v 0 h -42 v 0 h -43 v 0 h -43 v 0 h -43 v 0 h -43 v 0 h -43 v 0 h -43 v 0 h -42 v 0 H 86 v 0 H 43 v 0 H 0 Z"
     fill="#009935" />
</svg>