<?xml version="1.0" encoding="UTF-8" standalone="no"?>
<svg
   width="2000"
   height="2000"
   viewBox="0 0 2000 2000"
   version="1.1"
   id="svg186"
   sodipodi:docname="podcast-artwork.svg"
   xml:space="preserve"
   inkscape:version="1.2.2 (732a01da63, 2022-12-09)"
   inkscape:export-filename="podcast-artwork.png"
   inkscape:export-xdpi="96"
   inkscape:export-ydpi="96"
   xmlns:inkscape="http://www.inkscape.org/namespaces/inkscape"
   xmlns:sodipodi="http://sodipodi.sourceforge.net/DTD/sodipodi-0.dtd"
   xmlns="http://www.w3.org/2000/svg"
   xmlns:svg="http://www.w3.org/2000/svg"><defs
     id="defs190" /><sodipodi:namedview
     id="namedview188"
     pagecolor="#ffffff"
     bordercolor="#000000"
     borderopacity="0.25"
     inkscape:showpageshadow="2"
     inkscape:pageopacity="0.0"
     inkscape:pagecheckerboard="0"
     inkscape:deskcolor="#d1d1d1"
     showgrid="true"
     inkscape:zoom="0.35355339"
     inkscape:cx="53.740115"
     inkscape:cy="929.13831"
     inkscape:window-width="2400"
     inkscape:window-height="1262"
     inkscape:window-x="4792"
     inkscape:window-y="-8"
     inkscape:window-maximized="1"
     inkscape:current-layer="svg186" /><rect
     style="fill:#003399;stroke-width:0"
     id="rect358"
     width="2000"
     height="2000"
     x="0"
     y="0" /><path
     class="cls-1"
     d="m 1905.0002,1760.4671 v -57.7497 h -44.0631 l 0.06,-15.2712 c 0,-10.0197 -0.8752,-18.4553 -2.6106,-25.306 h 45.1948 v -28.8826 h -49.0278 l 36.2314,-36.2313 -20.4169,-20.4168 -38.4195,38.4194 V 1570 h -28.8823 v 45.4362 l -38.4345,-38.4193 -20.4169,20.4169 35.8239,35.8238 h -48.6202 v 28.8826 h 46.0096 c -2.2634,7.4243 -3.4254,16.5234 -3.4254,27.3431 v 13.2341 H 1730 v 57.7497 c 0,41.6336 30.814,87.749 73.9415,95.9278 v 11.8305 c -24.8534,6.4436 -43.2936,28.9882 -43.2936,55.8184 v 14.4411 h 115.4544 v -14.4411 c 0,-26.8302 -18.4401,-49.3899 -43.2934,-55.8184 v -12.2076 c 42.2069,-9.0844 72.1909,-54.4754 72.1909,-95.5507 z m -93.3021,-73.0359 c 0,-4.7534 0.1061,-8.5561 0.3017,-11.4081 0.1963,-2.8522 0.7848,-4.8893 1.7355,-6.1117 0.9506,-1.222 2.6407,-1.8409 5.0853,-1.8409 2.4446,0 4.18,0.6189 5.191,1.8409 1.0262,1.2224 1.5995,3.2595 1.7354,6.1117 0.1357,2.852 0.2113,6.6547 0.2113,11.4081 v 44.1534 h 50.1745 v 28.8825 c 0,31.3422 -20.8998,56.9502 -43.3086,65.3854 v -23.4801 l 26.1512,-1.8712 v -31.161 h -28.5204 c -4.7533,0 -8.4957,-0.6188 -11.1968,-1.841 -2.7161,-1.2225 -4.6477,-3.3951 -5.8097,-6.519 -1.1468,-3.1236 -1.7353,-7.545 -1.7353,-13.2491 v -60.2999 z m -52.8154,73.0359 v -28.8825 h 15.1354 v 16.1465 c 0,14.2603 1.7355,25.3665 5.1909,33.3039 3.4557,7.9523 9.3409,13.5207 17.6254,16.7046 2.1729,0.83 4.5421,1.5543 7.1075,2.1731 v 26.5434 c -23.0578,-7.7261 -45.0592,-33.832 -45.0592,-65.989 z m 84.4593,149.1355 h -49.933 c 4.9947,-8.6165 14.3204,-14.4111 24.9741,-14.4111 10.6535,0 19.9793,5.7946 24.974,14.4111 z"
     id="path1923"
     style="fill:#eceddc;stroke-width:0px" /><path
     fill="#003399"
     d="m 1000,776.1625 a 212.5,227.67857 0 0 0 -212.5,222.675 212.5,227.67857 0 0 0 1.709,26.18 c -23.959,20.635 -39.209,51.64 -39.209,86.32 0,62.13 48.91,112.5 109.245,112.5 v -225 c -7.39,0 -14.6,0.755 -21.58,2.195 a 162.5,174.10714 0 0 1 -0.165,-2.195 162.5,174.10714 0 0 1 162.5,-174.105 162.5,174.10714 0 0 1 162.5,174.105 162.5,174.10714 0 0 1 -0.165,2.195 c -6.98,-1.44 -14.19,-2.195 -21.58,-2.195 v 225 c 60.335,0 109.245,-50.37 109.245,-112.5 0,-34.68 -15.25,-65.685 -39.21,-86.32 a 212.5,227.67857 0 0 0 1.71,-26.18 212.5,227.67857 0 0 0 -212.5,-222.675 z"
     id="path184"
     style="stroke-width:5;fill:#ffffff;fill-opacity:1" /><path
     fill="#003399"
     d="m 1000,500 a 500,500 0 0 0 -500,500 500,500 0 0 0 500,500 500,500 0 0 0 500,-500 500,500 0 0 0 -500,-500 z m 0,125 a 375,375 0 0 1 375,375 375,375 0 0 1 -375,375 375,375 0 0 1 -375,-375 375,375 0 0 1 375,-375 z"
     id="path182"
     style="stroke-width:5;fill:#ffffff;fill-opacity:1" /><g
     aria-label="RoguePlanetoid"
     id="text1744"
     style="font-weight:300;font-size:173.333px;font-family:'Segoe UI';-inkscape-font-specification:'Segoe UI Light';fill:#ffffff;stroke-width:0"><path
       d="M 502.89484,398.30704 486.7295,362.76023 q -4.99348,-11.00258 -9.98696,-14.72653 -4.99348,-3.80859 -12.52601,-3.80859 h -15.06508 v 54.08193 h -8.37889 V 276.94009 h 33.68483 q 16.0807,0 25.22131,8.71743 9.22524,8.63279 9.22524,22.85152 0,13.11846 -7.53254,21.92053 -7.53254,8.80206 -21.07418,11.34112 v 0.33854 q 7.194,2.8776 14.04946,17.5195 l 18.0273,38.67831 z M 449.15145,284.6419 v 51.96604 h 20.90491 q 13.88018,0 22.00516,-7.27863 8.20962,-7.27863 8.20962,-19.97392 0,-11.59503 -7.36326,-18.11194 -7.36327,-6.60155 -21.07418,-6.60155 z"
       id="path1833" /><path
       d="m 570.09522,400.42292 q -18.95829,0 -30.04551,-12.44138 -11.00258,-12.52602 -11.00258,-32.49994 0,-21.58199 11.51039,-33.76946 11.59503,-12.18748 30.46869,-12.18748 18.53512,0 29.2838,12.10284 10.74867,12.10284 10.74867,33.51556 0,20.22782 -11.00258,32.75384 -10.91795,12.52602 -29.96088,12.52602 z m 0.59245,-83.7889 q -15.31898,0 -24.45959,10.3255 -9.05597,10.3255 -9.05597,28.69135 0,17.01169 8.8867,27.33719 8.8867,10.3255 24.29032,10.3255 15.65752,0 24.12105,-10.15623 8.46352,-10.15623 8.46352,-28.18354 0,-18.53512 -8.46352,-28.43744 -8.37889,-9.90233 -23.78251,-9.90233 z"
       id="path1835" /><path
       d="m 701.87231,391.87476 q 0,24.45959 -10.66404,35.80071 -10.66404,11.34112 -33.17702,11.34112 -12.52602,0 -25.81375,-6.60155 v -8.12498 q 13.71091,7.61717 25.98302,7.61717 35.88535,0 35.88535,-37.91659 v -11.25649 h -0.33855 q -10.24086,17.68877 -31.2304,17.68877 -15.99607,0 -26.1523,-11.59503 -10.07159,-11.59503 -10.07159,-32.33067 0,-20.73563 10.91795,-33.8541 10.91794,-13.11846 28.77598,-13.11846 19.12757,0 27.76036,15.82679 h 0.33855 v -13.71091 h 7.78644 z m -7.78644,-46.97257 q 0,-11.51039 -7.78645,-19.88928 -7.70181,-8.37889 -20.14319,-8.37889 -14.30335,0 -23.02079,10.74868 -8.71743,10.74867 -8.71743,28.43744 0,17.7734 7.95572,27.67573 8.04035,9.81769 21.15881,9.81769 13.96482,0 22.25907,-9.05597 8.29426,-9.05598 8.29426,-22.17444 z"
       id="path1837" /><path
       d="m 786.84608,398.30704 v -15.74216 h -0.33854 q -9.05597,17.85804 -27.92963,17.85804 -30.7226,0 -30.7226,-38.67831 v -50.10407 h 7.87108 V 359.798 q 0,17.60413 5.7552,25.55984 5.83983,7.95572 18.28121,7.95572 12.10284,0 19.55074,-8.8867 7.53254,-8.8867 7.53254,-23.69787 v -49.08845 h 7.78645 v 86.6665 z"
       id="path1839" /><path
       d="m 824.25488,355.31233 q 0,17.85804 8.20962,27.92963 8.29426,10.0716 22.68225,10.0716 14.55726,0 28.43744,-10.74868 v 8.29426 q -13.457,9.56378 -30.04551,9.56378 -16.75778,0 -27.08328,-12.01821 -10.3255,-12.0182 -10.3255,-33.93873 0,-18.9583 10.74868,-31.90749 10.83331,-13.03383 28.0989,-13.03383 16.16533,0 24.79813,11.34112 8.63279,11.34113 8.63279,30.9765 v 3.47005 z m 56.02854,-7.10936 q -0.50781,-14.98044 -7.194,-23.27469 -6.68618,-8.29426 -18.45048,-8.29426 -12.18748,0 -20.22783,8.20962 -7.95571,8.12498 -9.81769,23.35933 z"
       id="path1841" /><path
       d="m 919.97735,349.64177 v 48.66527 h -8.37889 V 276.94009 h 29.2838 q 18.70439,0 28.60671,8.71743 9.90233,8.63279 9.90233,25.30594 0,16.92705 -11.08722,27.845 -11.00259,10.83331 -30.89187,10.83331 z m 0,-64.99987 v 57.29806 h 17.26559 q 16.41924,0 24.9674,-7.78644 8.54816,-7.87108 8.54816,-22.17444 0,-27.33718 -31.39968,-27.33718 z"
       id="path1843" /><path
       d="M 1004.1894,398.30704 V 270 h 7.7865 v 128.30704 z"
       id="path1845" /><path
       d="m 1091.533,398.30704 v -17.35023 h -0.3385 q -4.1472,8.8867 -12.1029,14.21872 -7.8711,5.24739 -17.5195,5.24739 -12.3567,0 -19.5507,-6.94009 -7.194,-6.94009 -7.194,-17.5195 0,-22.68225 30.0455,-27.42182 l 26.6601,-3.97786 q 0,-27.92963 -20.9895,-27.92963 -14.3034,0 -27.845,11.51039 v -9.39451 q 4.8242,-3.80858 13.0338,-6.51691 8.2942,-2.70833 15.5729,-2.70833 13.3723,0 20.651,8.29425 7.3632,8.29426 7.3632,24.12105 v 56.36708 z m -23.8671,-43.16398 q -13.6263,1.94661 -19.1276,6.34764 -5.5013,4.3164 -5.5013,14.13409 0,7.70181 5.0781,12.69529 5.1628,4.99348 14.3034,4.99348 12.526,0 20.8202,-9.22524 8.2943,-9.30988 8.2943,-23.95178 v -8.46353 z"
       id="path1847" /><path
       d="m 1184.2932,398.30704 v -50.44261 q 0,-31.23041 -22.5129,-31.23041 -12.5261,0 -20.5664,9.22524 -8.0403,9.14061 -8.0403,22.68225 v 49.76553 h -7.7865 v -86.6665 h 7.7865 v 15.74216 h 0.3385 q 9.4791,-17.85804 29.6223,-17.85804 14.0495,0 21.4974,9.39451 7.4479,9.30988 7.4479,26.66011 v 52.72776 z"
       id="path1849" /><path
       d="m 1220.0093,355.31233 q 0,17.85804 8.2096,27.92963 8.2943,10.0716 22.6822,10.0716 14.5573,0 28.4375,-10.74868 v 8.29426 q -13.457,9.56378 -30.0455,9.56378 -16.7578,0 -27.0833,-12.01821 -10.3255,-12.0182 -10.3255,-33.93873 0,-18.9583 10.7487,-31.90749 10.8333,-13.03383 28.0989,-13.03383 16.1653,0 24.7981,11.34112 8.6328,11.34113 8.6328,30.9765 v 3.47005 z m 56.0285,-7.10936 q -0.5078,-14.98044 -7.194,-23.27469 -6.6862,-8.29426 -18.4505,-8.29426 -12.1874,0 -20.2278,8.20962 -7.9557,8.12498 -9.8177,23.35933 z"
       id="path1851" /><path
       d="m 1339.9375,397.12214 q -6.0938,2.8776 -11.4258,2.8776 -19.2122,0 -19.2122,-23.02079 V 318.7499 h -15.5729 v -7.10936 h 15.5729 v -22.51298 q 1.862,-0.67708 3.8932,-1.35416 2.0313,-0.59245 3.8932,-1.26953 v 25.13667 h 22.8516 v 7.10936 h -22.8516 v 57.21343 q 0,8.97134 2.793,13.03383 2.8776,3.97786 9.6484,3.97786 4.8242,0 10.4102,-3.13151 z"
       id="path1853" /><path
       d="m 1391.9035,400.42292 q -18.9583,0 -30.0455,-12.44138 -11.0026,-12.52602 -11.0026,-32.49994 0,-21.58199 11.5104,-33.76946 11.595,-12.18748 30.4687,-12.18748 18.5351,0 29.2838,12.10284 10.7487,12.10284 10.7487,33.51556 0,20.22782 -11.0026,32.75384 -10.9179,12.52602 -29.9609,12.52602 z m 0.5925,-83.7889 q -15.319,0 -24.4596,10.3255 -9.056,10.3255 -9.056,28.69135 0,17.01169 8.8867,27.33719 8.8867,10.3255 24.2903,10.3255 15.6575,0 24.1211,-10.15623 8.4635,-10.15623 8.4635,-28.18354 0,-18.53512 -8.4635,-28.43744 -8.3789,-9.90233 -23.7825,-9.90233 z"
       id="path1855" /><path
       d="m 1458.1729,289.80465 q -2.5391,0 -4.4857,-1.86198 -1.9466,-1.86197 -1.9466,-4.73957 0,-2.79297 1.9466,-4.48567 2.0312,-1.77734 4.4857,-1.77734 2.6237,0 4.5703,1.6927 2.0312,1.69271 2.0312,4.57031 0,2.70832 -1.9466,4.65494 -1.9466,1.94661 -4.6549,1.94661 z m -3.8086,108.50239 v -86.6665 h 7.7864 v 86.6665 z"
       id="path1857" /><path
       d="m 1551.441,398.30704 v -15.74216 h -0.3386 q -4.2317,8.20962 -12.526,13.03383 -8.2942,4.82421 -18.7044,4.82421 -15.996,0 -26.1523,-11.67967 -10.0716,-11.67966 -10.0716,-32.24603 0,-20.98954 11.0026,-33.93873 11.0872,-13.03383 28.6914,-13.03383 19.4661,0 27.7603,15.99606 h 0.3386 V 270 h 7.7864 v 128.30704 z m 0,-52.72776 q 0,-12.10284 -7.7018,-20.48173 -7.6172,-8.46353 -20.5664,-8.46353 -13.6263,0 -22.513,10.49477 -8.8867,10.41014 -8.8867,28.69135 0,17.94267 7.9557,27.76036 8.0404,9.73306 20.651,9.73306 14.8112,0 22.9362,-9.14061 8.125,-9.22524 8.125,-22.42834 z"
       id="path1859" /></g><g
     aria-label="Podcast"
     id="text1744-8"
     style="font-weight:300;font-size:173.333px;font-family:'Segoe UI';-inkscape-font-specification:'Segoe UI Light';fill:#ffffff;stroke-width:0"><path
       d="m 737.71539,1679.6417 v 48.6653 h -8.37889 v -121.3669 h 29.28379 q 18.70439,0 28.60672,8.7174 9.90232,8.6328 9.90232,25.3059 0,16.9271 -11.08722,27.845 -11.00258,10.8333 -30.89186,10.8333 z m 0,-64.9998 v 57.298 h 17.26559 q 16.41924,0 24.9674,-7.7864 8.54816,-7.8711 8.54816,-22.1744 0,-27.3372 -31.39968,-27.3372 z"
       id="path1862" /><path
       d="m 846.97949,1730.4229 q -18.95829,0 -30.04551,-12.4414 -11.00258,-12.526 -11.00258,-32.4999 0,-21.582 11.51039,-33.7695 11.59503,-12.1875 30.46869,-12.1875 18.53512,0 29.2838,12.1029 10.74867,12.1028 10.74867,33.5155 0,20.2279 -11.00258,32.7539 -10.91795,12.526 -29.96088,12.526 z m 0.59245,-83.7889 q -15.31898,0 -24.45959,10.3255 -9.05597,10.3255 -9.05597,28.6913 0,17.0117 8.8867,27.3372 8.8867,10.3255 24.29032,10.3255 15.65752,0 24.12105,-10.1562 8.46352,-10.1562 8.46352,-28.1835 0,-18.5352 -8.46352,-28.4375 -8.37889,-9.9023 -23.78251,-9.9023 z"
       id="path1864" /><path
       d="m 970.97013,1728.307 v -15.7421 h -0.33854 q -4.23177,8.2096 -12.52602,13.0338 -8.29425,4.8242 -18.70439,4.8242 -15.99606,0 -26.15229,-11.6797 -10.0716,-11.6796 -10.0716,-32.246 0,-20.9895 11.00258,-33.9387 11.08722,-13.0339 28.69135,-13.0339 19.46611,0 27.76037,15.9961 h 0.33854 V 1600 h 7.78644 v 128.307 z m 0,-52.7278 q 0,-12.1028 -7.70181,-20.4817 -7.61717,-8.4635 -20.56637,-8.4635 -13.62627,0 -22.51297,10.4948 -8.8867,10.4101 -8.8867,28.6913 0,17.9427 7.95571,27.7604 8.04035,9.733 20.651,9.733 14.81117,0 22.93615,-9.1406 8.12499,-9.2252 8.12499,-22.4283 z"
       id="path1866" /><path
       d="m 1062.6301,1724.4984 q -9.6484,5.9245 -23.0208,5.9245 -17.6888,0 -28.5221,-12.1029 -10.8333,-12.1874 -10.8333,-31.8228 0,-20.651 12.1875,-33.7695 12.1875,-13.2031 31.315,-13.2031 9.9024,0 19.2122,4.0625 v 8.8021 q -9.3098,-5.7552 -20.3971,-5.7552 -15.2343,0 -24.7134,11.0026 -9.4792,10.9179 -9.4792,28.3528 0,16.8424 8.6328,27.0833 8.7174,10.2408 22.9362,10.2408 13.0338,0 22.6822,-6.9401 z"
       id="path1868" /><path
       d="m 1135.2471,1728.307 v -17.3502 h -0.3385 q -4.1471,8.8867 -12.1028,14.2187 -7.8711,5.2474 -17.5195,5.2474 -12.3568,0 -19.5508,-6.9401 -7.194,-6.9401 -7.194,-17.5195 0,-22.6822 30.0455,-27.4218 l 26.6601,-3.9779 q 0,-27.9296 -20.9895,-27.9296 -14.3034,0 -27.845,11.5104 v -9.3945 q 4.8242,-3.8086 13.0338,-6.5169 8.2943,-2.7084 15.5729,-2.7084 13.3724,0 20.651,8.2943 7.3633,8.2942 7.3633,24.121 v 56.3671 z m -23.8671,-43.164 q -13.6263,1.9466 -19.1276,6.3477 -5.5013,4.3164 -5.5013,14.1341 0,7.7018 5.0782,12.6952 5.1627,4.9935 14.3033,4.9935 12.526,0 20.8203,-9.2252 8.2942,-9.3099 8.2942,-23.9518 v -8.4635 z"
       id="path1870" /><path
       d="m 1164.6156,1724.4984 v -9.3945 q 4.401,3.8086 10.664,6.0091 6.263,2.2005 10.8333,2.2005 20.3971,0 20.3971,-16.6731 0,-5.7552 -4.4856,-9.8177 -4.4857,-4.0625 -14.5573,-8.3789 -12.4414,-5.4167 -17.5195,-11.1718 -4.9935,-5.8399 -4.9935,-14.1341 0,-10.5794 8.0404,-17.0964 8.125,-6.5169 19.9739,-6.5169 11.1718,0 19.1276,4.5703 v 8.8021 q -9.6485,-6.263 -19.974,-6.263 -8.5481,0 -13.7955,4.4857 -5.2474,4.401 -5.2474,11.5104 0,6.1783 3.3008,10.0715 3.3008,3.8086 14.5572,8.8021 13.5417,6.0938 18.6198,11.3411 5.0781,5.1628 5.0781,13.7956 0,10.3255 -7.7864,17.0963 -7.7018,6.6862 -21.3281,6.6862 -12.526,0 -20.9049,-5.9245 z"
       id="path1872" /><path
       d="m 1270.6636,1727.1221 q -6.0938,2.8776 -11.4258,2.8776 -19.2122,0 -19.2122,-23.0208 v -58.229 h -15.5729 v -7.1094 h 15.5729 v -22.513 q 1.862,-0.677 3.8932,-1.3541 2.0313,-0.5925 3.8932,-1.2696 v 25.1367 h 22.8516 v 7.1094 h -22.8516 v 57.2134 q 0,8.9713 2.793,13.0338 2.8776,3.9779 9.6484,3.9779 4.8242,0 10.4102,-3.1315 z"
       id="path1874" /></g></svg>
